<?xml version="1.0" encoding="UTF-8"?>
<!DOCTYPE svg PUBLIC "-//W3C//DTD SVG 1.1//EN" "http://www.w3.org/Graphics/SVG/1.1/DTD/svg11.dtd">
<svg xmlns="http://www.w3.org/2000/svg" version="1.1" width="256px" height="256px" style="shape-rendering:geometricPrecision; text-rendering:geometricPrecision; image-rendering:optimizeQuality; fill-rule:evenodd; clip-rule:evenodd" xmlns:xlink="http://www.w3.org/1999/xlink">
<g><path style="opacity:1" fill="#fefffe" d="M 38.5,40.5 C 74.086,43.7027 102.253,59.7027 123,88.5C 123.167,108.833 123.333,129.167 123.5,149.5C 123.645,171.215 123.145,192.882 122,214.5C 99.9945,189.247 72.1612,175.247 38.5,172.5C 38.5,128.5 38.5,84.5 38.5,40.5 Z"/></g>
<g><path style="opacity:1" fill="#fefffe" d="M 213.5,40.5 C 214.5,40.5 215.5,40.5 216.5,40.5C 216.5,84.5 216.5,128.5 216.5,172.5C 182.834,175.249 155.001,189.249 133,214.5C 132.333,172.167 132.333,129.833 133,87.5C 153.296,60.6033 180.129,44.9366 213.5,40.5 Z"/></g>
<g><path style="opacity:1" fill="#fefffe" d="M 25.5,70.5 C 26.8333,70.5 28.1667,70.5 29.5,70.5C 29.1763,106.697 29.5096,142.864 30.5,179C 30.9054,179.945 31.572,180.612 32.5,181C 61.6644,181.601 86.6644,191.935 107.5,212C 100.865,210.573 94.1984,208.907 87.5,207C 64.3662,202.034 41.3662,202.534 18.5,208.5C 17.3334,163.504 17.1667,118.504 18,73.5C 20.5667,72.4131 23.0667,71.4131 25.5,70.5 Z"/></g>
<g><path style="opacity:1" fill="#fefffe" d="M 225.5,70.5 C 229.58,70.5828 233.413,71.5828 237,73.5C 237.667,118.167 237.667,162.833 237,207.5C 236.667,207.833 236.333,208.167 236,208.5C 206.151,200.759 176.818,202.426 148,213.5C 147.333,212.833 147.333,212.167 148,211.5C 169.829,192.165 195.329,181.498 224.5,179.5C 225.493,143.21 225.827,106.876 225.5,70.5 Z"/></g>
</svg>
