<?xml version="1.0" encoding="UTF-8"?>
<!DOCTYPE svg PUBLIC "-//W3C//DTD SVG 1.1//EN" "http://www.w3.org/Graphics/SVG/1.1/DTD/svg11.dtd">
<svg xmlns="http://www.w3.org/2000/svg" version="1.1" width="800px" height="800px" style="shape-rendering:geometricPrecision; text-rendering:geometricPrecision; image-rendering:optimizeQuality; fill-rule:evenodd; clip-rule:evenodd" xmlns:xlink="http://www.w3.org/1999/xlink">
<g><path style="opacity:0.978" fill="#fefffe" d="M 548.5,-0.5 C 553.5,-0.5 558.5,-0.5 563.5,-0.5C 569.83,1.30036 574.997,4.96702 579,10.5C 596.369,35.8932 611.702,62.5598 625,90.5C 643.762,131.94 635.595,166.773 600.5,195C 568.255,213.84 536.921,212.506 506.5,191C 477.542,164.551 470.375,133.051 485,96.5C 499.117,63.1032 517.284,32.2699 539.5,4C 542.592,2.45406 545.592,0.95406 548.5,-0.5 Z M 555.5,74.5 C 567.382,91.6021 576.049,110.269 581.5,130.5C 579.628,145.539 571.128,153.539 556,154.5C 540.693,153.528 532.193,145.361 530.5,130C 531.728,123.983 533.561,118.149 536,112.5C 542.271,99.6235 548.771,86.9568 555.5,74.5 Z"/></g>
<g><path style="opacity:0.978" fill="#fefffe" d="M 238.5,155.5 C 251.41,154.538 261.244,159.538 268,170.5C 283.769,193.691 297.769,218.024 310,243.5C 318.587,260.177 322.254,277.843 321,296.5C 313.952,333.882 291.785,356.382 254.5,364C 213.008,367.145 184.174,349.645 168,311.5C 163.362,295.491 163.362,279.491 168,263.5C 173.168,248.668 179.501,234.335 187,220.5C 197.665,201.161 209.332,182.494 222,164.5C 226.804,160.018 232.304,157.018 238.5,155.5 Z M 242.5,231.5 C 254.233,248.471 262.9,266.971 268.5,287C 263.967,307.434 251.633,314.767 231.5,309C 222.803,304.29 218.136,296.956 217.5,287C 218.31,280.542 220.143,274.375 223,268.5C 229.003,255.824 235.503,243.49 242.5,231.5 Z"/></g>
<g><path style="opacity:0.994" fill="#fefffe" d="M 772.5,799.5 C 523.833,799.5 275.167,799.5 26.5,799.5C 8.69919,791.287 3.53253,777.954 11,759.5C 14.368,753.797 19.2013,749.963 25.5,748C 36.7789,746.617 48.1123,746.117 59.5,746.5C 59.3333,659.833 59.5,573.166 60,486.5C 66.0557,448.445 87.889,425.278 125.5,417C 203.167,416.333 280.833,416.333 358.5,417C 363.131,417.782 367.631,418.949 372,420.5C 372.333,391.5 372.667,362.5 373,333.5C 378.244,292.59 401.078,268.09 441.5,260C 517.833,259.333 594.167,259.333 670.5,260C 701.788,264.959 723.288,282.125 735,311.5C 736.843,317.383 738.177,323.383 739,329.5C 739.5,468.5 739.667,607.5 739.5,746.5C 750.888,746.117 762.221,746.617 773.5,748C 790.06,755.636 795.227,768.136 789,785.5C 785.315,792.409 779.815,797.076 772.5,799.5 Z M 530.5,312.5 C 575.168,312.333 619.835,312.5 664.5,313C 676.76,315.594 683.927,323.094 686,335.5C 686.667,389.5 686.667,443.5 686,497.5C 682.393,513.887 672.226,521.387 655.5,520C 642.92,516.688 636.087,508.522 635,495.5C 634.667,458.167 634.333,420.833 634,383.5C 630.071,371.077 621.571,364.41 608.5,363.5C 589.809,366.371 580.642,377.371 581,396.5C 575.511,411.324 565.011,417.491 549.5,415C 539.118,411.952 532.951,405.119 531,394.5C 530.5,367.169 530.333,339.835 530.5,312.5 Z M 217.5,469.5 C 262.501,469.333 307.501,469.5 352.5,470C 362.558,472.391 369.058,478.557 372,488.5C 372.667,527.5 372.667,566.5 372,605.5C 366.644,620.266 356.144,626.432 340.5,624C 330.377,620.212 324.21,613.046 322,602.5C 321.667,581.833 321.333,561.167 321,540.5C 312.647,520.946 298.814,515.779 279.5,525C 271.167,531.836 267.334,540.67 268,551.5C 262.485,568.509 250.985,575.009 233.5,571C 225.062,567.563 219.895,561.396 218,552.5C 217.5,524.835 217.333,497.169 217.5,469.5 Z"/></g>
</svg>
