<?xml version="1.0" encoding="UTF-8"?>
<!DOCTYPE svg PUBLIC "-//W3C//DTD SVG 1.1//EN" "http://www.w3.org/Graphics/SVG/1.1/DTD/svg11.dtd">
<svg xmlns="http://www.w3.org/2000/svg" version="1.1" width="800px" height="800px" style="shape-rendering:geometricPrecision; text-rendering:geometricPrecision; image-rendering:optimizeQuality; fill-rule:evenodd; clip-rule:evenodd" xmlns:xlink="http://www.w3.org/1999/xlink">
<g><path style="opacity:0.995" fill="#fefffe" d="M 228.5,65.5 C 342.5,65.3333 456.5,65.5 570.5,66C 585.342,68.508 594.842,77.008 599,91.5C 599.5,172.166 599.667,252.833 599.5,333.5C 566.167,333.5 532.833,333.5 499.5,333.5C 499.667,294.499 499.5,255.499 499,216.5C 498.357,209.376 494.857,204.209 488.5,201C 392.203,199.512 295.869,199.012 199.5,199.5C 199.333,163.498 199.5,127.498 200,91.5C 204.331,76.9963 213.831,68.3297 228.5,65.5 Z"/></g>
<g><path style="opacity:0.987" fill="#fefffe" d="M 94.5,265.5 C 197.834,265.333 301.167,265.5 404.5,266C 420.667,268.833 430.167,278.333 433,294.5C 433.5,440.833 433.667,587.166 433.5,733.5C 310.833,733.5 188.167,733.5 65.5,733.5C 65.3333,587.166 65.5,440.833 66,294.5C 69.0132,278.321 78.5132,268.654 94.5,265.5 Z M 133.5,333.5 C 155.5,333.5 177.5,333.5 199.5,333.5C 199.5,355.5 199.5,377.5 199.5,399.5C 177.5,399.5 155.5,399.5 133.5,399.5C 133.5,377.5 133.5,355.5 133.5,333.5 Z M 266.5,333.5 C 299.5,333.5 332.5,333.5 365.5,333.5C 365.5,355.5 365.5,377.5 365.5,399.5C 332.5,399.5 299.5,399.5 266.5,399.5C 266.5,377.5 266.5,355.5 266.5,333.5 Z M 133.5,466.5 C 155.5,466.5 177.5,466.5 199.5,466.5C 199.5,488.5 199.5,510.5 199.5,532.5C 177.5,532.5 155.5,532.5 133.5,532.5C 133.5,510.5 133.5,488.5 133.5,466.5 Z M 266.5,466.5 C 299.5,466.5 332.5,466.5 365.5,466.5C 365.5,488.5 365.5,510.5 365.5,532.5C 332.5,532.5 299.5,532.5 266.5,532.5C 266.5,510.5 266.5,488.5 266.5,466.5 Z M 133.5,599.5 C 155.5,599.5 177.5,599.5 199.5,599.5C 199.5,621.5 199.5,643.5 199.5,665.5C 177.5,665.5 155.5,665.5 133.5,665.5C 133.5,643.5 133.5,621.5 133.5,599.5 Z M 266.5,599.5 C 299.5,599.5 332.5,599.5 365.5,599.5C 365.5,621.5 365.5,643.5 365.5,665.5C 332.5,665.5 299.5,665.5 266.5,665.5C 266.5,643.5 266.5,621.5 266.5,599.5 Z"/></g>
<g><path style="opacity:0.993" fill="#fefffe" d="M 524.5,399.5 C 585.501,399.333 646.501,399.5 707.5,400C 721.992,404.158 730.492,413.658 733,428.5C 733.5,530.166 733.667,631.833 733.5,733.5C 705.5,733.5 677.5,733.5 649.5,733.5C 649.5,688.833 649.5,644.167 649.5,599.5C 627.5,599.5 605.5,599.5 583.5,599.5C 583.5,644.167 583.5,688.833 583.5,733.5C 555.5,733.5 527.5,733.5 499.5,733.5C 499.333,630.499 499.5,527.499 500,424.5C 503.683,411.651 511.85,403.318 524.5,399.5 Z"/></g>
</svg>
