<?xml version="1.0" encoding="UTF-8"?>
<!DOCTYPE svg PUBLIC "-//W3C//DTD SVG 1.1//EN" "http://www.w3.org/Graphics/SVG/1.1/DTD/svg11.dtd">
<svg xmlns="http://www.w3.org/2000/svg" version="1.1" width="512px" height="512px" style="shape-rendering:geometricPrecision; text-rendering:geometricPrecision; image-rendering:optimizeQuality; fill-rule:evenodd; clip-rule:evenodd" xmlns:xlink="http://www.w3.org/1999/xlink">
<g><path style="opacity:0.965" fill="#fefffe" d="M 34.5,-0.5 C 42.5,-0.5 50.5,-0.5 58.5,-0.5C 62.7358,2.16931 67.4025,4.50265 72.5,6.5C 79.7174,12.5602 86.0507,18.7269 91.5,25C 137.16,69.993 182.16,114.993 226.5,160C 237.429,169.054 247.429,178.554 256.5,188.5C 265.571,178.554 275.571,169.054 286.5,160C 330.805,115.028 375.805,70.0281 421.5,25C 426.949,18.7269 433.283,12.5602 440.5,6.5C 445.598,4.50265 450.264,2.16931 454.5,-0.5C 462.5,-0.5 470.5,-0.5 478.5,-0.5C 482.771,2.17589 487.438,4.50923 492.5,6.5C 501.68,13.6509 508.014,22.6509 511.5,33.5C 511.5,41.5 511.5,49.5 511.5,57.5C 509.123,65.7301 504.789,72.8968 498.5,79C 441.655,136.35 382.988,195.183 322.5,255.5C 382.094,314.926 440.761,373.759 498.5,432C 504.751,437.681 509.085,444.515 511.5,452.5C 511.5,461.167 511.5,469.833 511.5,478.5C 509.096,486.456 504.763,493.289 498.5,499C 498.833,499.333 499.167,499.667 499.5,500C 497.5,501 495.5,502 493.5,503C 493.833,503.333 494.167,503.667 494.5,504C 488.95,506.278 483.617,508.778 478.5,511.5C 470.5,511.5 462.5,511.5 454.5,511.5C 448.431,508.766 442.431,505.432 436.5,501.5C 385.486,450.656 335.486,400.489 286.5,351C 275.469,342.05 265.469,332.55 256.5,322.5C 247.429,332.446 237.429,341.946 226.5,351C 182.298,395.869 137.298,440.869 91.5,486C 86.0507,492.273 79.7174,498.44 72.5,504.5C 67.4378,506.491 62.7711,508.824 58.5,511.5C 50.5,511.5 42.5,511.5 34.5,511.5C 27.5304,508.471 21.1971,505.305 15.5,502C 15.8333,501.667 16.1667,501.333 16.5,501C 6.47942,492.317 0.812758,481.484 -0.5,468.5C -0.5,466.833 -0.5,465.167 -0.5,463.5C 0.726611,451.304 5.72661,440.804 14.5,432C 73.4591,372.542 132.126,313.709 190.5,255.5C 129.623,194.623 69.6232,134.623 10.5,75.5C 4.11354,67.0374 0.446874,57.7041 -0.5,47.5C -0.5,45.8333 -0.5,44.1667 -0.5,42.5C 0.812758,29.5163 6.47942,18.6829 16.5,10C 16.1667,9.66667 15.8333,9.33333 15.5,9C 21.1971,5.69537 27.5304,2.5287 34.5,-0.5 Z"/></g>
</svg>
