<?xml version="1.0" encoding="UTF-8"?>
<!DOCTYPE svg PUBLIC "-//W3C//DTD SVG 1.1//EN" "http://www.w3.org/Graphics/SVG/1.1/DTD/svg11.dtd">
<svg xmlns="http://www.w3.org/2000/svg" version="1.1" width="800px" height="800px" style="shape-rendering:geometricPrecision; text-rendering:geometricPrecision; image-rendering:optimizeQuality; fill-rule:evenodd; clip-rule:evenodd" xmlns:xlink="http://www.w3.org/1999/xlink">
<g><path style="opacity:1" fill="#212221" d="M 31.5,-0.5 C 276.833,-0.5 522.167,-0.5 767.5,-0.5C 791.576,8.31153 800.409,25.3115 794,50.5C 792.587,53.6612 790.92,56.6612 789,59.5C 692.667,163.833 596.333,268.167 500,372.5C 495.952,376.88 492.285,381.546 489,386.5C 486.006,391.816 484.006,397.482 483,403.5C 482.667,482.833 482.333,562.167 482,641.5C 481.408,645.276 480.408,648.943 479,652.5C 473.065,662.035 466.398,671.035 459,679.5C 425.167,718 391.333,756.5 357.5,795C 354.809,796.605 352.142,798.105 349.5,799.5C 344.5,799.5 339.5,799.5 334.5,799.5C 324.899,795.725 319.065,788.725 317,778.5C 316.667,653.5 316.333,528.5 316,403.5C 313.807,391.778 308.473,381.778 300,373.5C 203.333,268.833 106.667,164.167 10,59.5C -1.55657,40.2844 0.610097,22.7844 16.5,7C 21.1516,3.62763 26.1516,1.12763 31.5,-0.5 Z"/></g>
</svg>
