<?xml version="1.0" encoding="UTF-8"?>
<!DOCTYPE svg PUBLIC "-//W3C//DTD SVG 1.1//EN" "http://www.w3.org/Graphics/SVG/1.1/DTD/svg11.dtd">
<svg xmlns="http://www.w3.org/2000/svg" version="1.1" width="512px" height="512px" style="shape-rendering:geometricPrecision; text-rendering:geometricPrecision; image-rendering:optimizeQuality; fill-rule:evenodd; clip-rule:evenodd" xmlns:xlink="http://www.w3.org/1999/xlink">
<g><path style="opacity:0.996" fill="#fefffe" d="M 132.5,31.5 C 168.845,29.0017 204.178,33.835 238.5,46C 262.833,54.3333 287.167,62.6667 311.5,71C 336.827,80.2359 362.493,81.5693 388.5,75C 400.55,72.5387 412.217,68.872 423.5,64C 429.922,62.6989 435.922,63.6989 441.5,67C 443.969,69.4411 445.802,72.2744 447,75.5C 447.667,152.833 447.667,230.167 447,307.5C 445.604,311.792 443.104,315.292 439.5,318C 400.963,334.467 360.963,339.467 319.5,333C 290.695,327.299 262.028,320.965 233.5,314C 200.908,305.711 167.908,302.711 134.5,305C 121.168,305.799 108.335,308.632 96,313.5C 95.6667,365.5 95.3333,417.5 95,469.5C 90.5269,478.482 83.3603,481.649 73.5,479C 69,477.167 65.8333,474 64,469.5C 63.3333,333.167 63.3333,196.833 64,60.5C 67.1408,52.0258 72.9742,46.1925 81.5,43C 98.1175,36.9128 115.118,33.0795 132.5,31.5 Z"/></g>
</svg>
