<?xml version="1.0" encoding="UTF-8"?>
<!DOCTYPE svg PUBLIC "-//W3C//DTD SVG 1.1//EN" "http://www.w3.org/Graphics/SVG/1.1/DTD/svg11.dtd">
<svg xmlns="http://www.w3.org/2000/svg" version="1.1" width="512px" height="512px" style="shape-rendering:geometricPrecision; text-rendering:geometricPrecision; image-rendering:optimizeQuality; fill-rule:evenodd; clip-rule:evenodd" xmlns:xlink="http://www.w3.org/1999/xlink">
<g><path style="opacity:0.989" fill="#fefffe" d="M 156.5,37.5 C 162.914,36.6134 166.747,39.2801 168,45.5C 168.667,164.833 168.667,284.167 168,403.5C 167.697,405.888 166.863,408.055 165.5,410C 135.5,429.333 105.5,448.667 75.5,468C 59.4192,472.858 46.2526,468.691 36,455.5C 34.2752,452.326 32.9419,448.993 32,445.5C 31.3333,341.167 31.3333,236.833 32,132.5C 34.038,124.932 38.2047,118.766 44.5,114C 82.0114,88.637 119.345,63.137 156.5,37.5 Z"/></g>
<g><path style="opacity:0.996" fill="#fefffe" d="M 203.5,37.5 C 206.978,37.1842 210.312,37.6842 213.5,39C 246.257,60.1274 278.757,81.6274 311,103.5C 311.667,225.5 311.667,347.5 311,469.5C 310.5,471.333 309.333,472.5 307.5,473C 304.036,473.817 300.702,473.483 297.5,472C 264.729,450.893 232.229,429.393 200,407.5C 199.333,285.5 199.333,163.5 200,41.5C 200.69,39.6498 201.856,38.3164 203.5,37.5 Z"/></g>
<g><path style="opacity:0.996" fill="#fefffe" d="M 444.5,40.5 C 462.093,40.6118 473.593,48.9451 479,65.5C 479.667,169.833 479.667,274.167 479,378.5C 476.962,386.068 472.795,392.234 466.5,397C 429.167,422.333 391.833,447.667 354.5,473C 350.207,474.202 346.707,473.035 344,469.5C 343.333,347.5 343.333,225.5 344,103.5C 344.374,102.584 344.874,101.75 345.5,101C 373.5,82.6667 401.5,64.3333 429.5,46C 434.299,43.2375 439.299,41.4042 444.5,40.5 Z"/></g>
</svg>
