<?xml version="1.0" encoding="UTF-8"?>
<!DOCTYPE svg PUBLIC "-//W3C//DTD SVG 1.1//EN" "http://www.w3.org/Graphics/SVG/1.1/DTD/svg11.dtd">
<svg xmlns="http://www.w3.org/2000/svg" version="1.1" width="800px" height="800px" style="shape-rendering:geometricPrecision; text-rendering:geometricPrecision; image-rendering:optimizeQuality; fill-rule:evenodd; clip-rule:evenodd" xmlns:xlink="http://www.w3.org/1999/xlink">
<g><path style="opacity:1" fill="#fefffe" d="M 799.5,651.5 C 799.5,661.167 799.5,670.833 799.5,680.5C 792.413,719.432 770.413,746.266 733.5,761C 689.252,774.066 651.752,763.566 621,729.5C 598.131,698.61 593.131,664.943 606,628.5C 617.84,601.326 637.506,582.326 665,571.5C 665.5,525.501 665.667,479.501 665.5,433.5C 588.167,433.5 510.833,433.5 433.5,433.5C 433.333,479.501 433.5,525.501 434,571.5C 481.358,592.253 503.025,628.586 499,680.5C 492.234,719.599 470.4,746.432 433.5,761C 389.252,774.066 351.752,763.566 321,729.5C 298.131,698.61 293.131,664.943 306,628.5C 317.84,601.326 337.506,582.326 365,571.5C 365.5,525.501 365.667,479.501 365.5,433.5C 288.167,433.5 210.833,433.5 133.5,433.5C 133.333,479.501 133.5,525.501 134,571.5C 181.358,592.253 203.025,628.586 199,680.5C 192.416,717.183 172.249,743.349 138.5,759C 90.4813,775.457 50.3146,764.291 18,725.5C 8.4821,711.808 2.31543,696.808 -0.5,680.5C -0.5,670.833 -0.5,661.167 -0.5,651.5C 6.89408,613.062 28.7274,586.395 65,571.5C 65.5,502.834 65.6667,434.167 65.5,365.5C 165.5,365.5 265.5,365.5 365.5,365.5C 365.667,319.499 365.5,273.499 365,227.5C 317.642,206.747 295.975,170.414 300,118.5C 309.531,69.9716 338.698,41.4716 387.5,33C 431.61,29.9695 465.11,47.1362 488,84.5C 509.617,131.975 501.784,173.808 464.5,210C 455.166,217.251 444.999,223.085 434,227.5C 433.5,273.499 433.333,319.499 433.5,365.5C 533.5,365.5 633.5,365.5 733.5,365.5C 733.333,434.167 733.5,502.834 734,571.5C 770.273,586.395 792.106,613.062 799.5,651.5 Z"/></g>
</svg>
