<?xml version="1.0" encoding="UTF-8"?>
<!DOCTYPE svg PUBLIC "-//W3C//DTD SVG 1.1//EN" "http://www.w3.org/Graphics/SVG/1.1/DTD/svg11.dtd">
<svg xmlns="http://www.w3.org/2000/svg" version="1.1" width="512px" height="512px" style="shape-rendering:geometricPrecision; text-rendering:geometricPrecision; image-rendering:optimizeQuality; fill-rule:evenodd; clip-rule:evenodd" xmlns:xlink="http://www.w3.org/1999/xlink">
<g><path style="opacity:0.984" fill="#fefffe" d="M 171.5,47.5 C 192.42,45.4151 209.587,52.4151 223,68.5C 246.558,101.846 251.892,137.846 239,176.5C 224.696,208.574 201.196,218.407 168.5,206C 146.384,190.641 133.217,169.474 129,142.5C 123.526,115.346 128.193,90.0122 143,66.5C 150.572,57.0631 160.072,50.7297 171.5,47.5 Z"/></g>
<g><path style="opacity:0.984" fill="#fefffe" d="M 320.5,47.5 C 347.849,45.3373 366.682,57.004 377,82.5C 389.374,119.141 385.04,153.807 364,186.5C 348.591,207.956 328.091,215.456 302.5,209C 284.817,200.488 273.65,186.654 269,167.5C 260.175,131.623 266.508,98.6234 288,68.5C 296.947,58.3503 307.78,51.3503 320.5,47.5 Z"/></g>
<g><path style="opacity:0.984" fill="#fefffe" d="M 55.5,151.5 C 72.0006,149.542 87.0006,153.375 100.5,163C 133.942,190.738 147.775,226.238 142,269.5C 132.178,305.3 109.344,318.133 73.5,308C 49.3422,296.175 32.5089,277.675 23,252.5C 13.8641,228.702 13.1974,204.702 21,180.5C 27.859,165.128 39.359,155.461 55.5,151.5 Z"/></g>
<g><path style="opacity:0.984" fill="#fefffe" d="M 436.5,151.5 C 470.041,149.53 489.541,165.197 495,198.5C 498.75,241.485 483.584,275.985 449.5,302C 433.107,312.219 415.774,314.219 397.5,308C 380.362,298.587 370.529,284.087 368,264.5C 364.404,221.581 379.571,187.081 413.5,161C 420.824,156.661 428.49,153.494 436.5,151.5 Z"/></g>
<g><path style="opacity:0.99" fill="#fefffe" d="M 242.5,223.5 C 274.706,219.525 299.872,230.858 318,257.5C 327.333,272.167 336.667,286.833 346,301.5C 350.865,306.7 356.032,311.533 361.5,316C 375.336,324.417 389.002,333.084 402.5,342C 429.218,364.03 437.052,391.53 426,424.5C 411.843,454.166 388.343,467 355.5,463C 347.731,461.808 340.064,460.141 332.5,458C 313.637,451.868 294.637,446.201 275.5,441C 262.167,437.667 248.833,437.667 235.5,441C 214.075,447.023 192.742,453.356 171.5,460C 154.309,465.106 137.309,465.106 120.5,460C 87.4761,443.449 74.6427,416.949 82,380.5C 86.2572,364.476 95.0906,351.642 108.5,342C 121.167,334 133.833,326 146.5,318C 152.928,313.577 158.761,308.41 164,302.5C 173.417,287.33 183.084,272.33 193,257.5C 204.827,239.144 221.327,227.811 242.5,223.5 Z"/></g>
</svg>
