<?xml version="1.0" encoding="UTF-8"?>
<!DOCTYPE svg PUBLIC "-//W3C//DTD SVG 1.1//EN" "http://www.w3.org/Graphics/SVG/1.1/DTD/svg11.dtd">
<svg xmlns="http://www.w3.org/2000/svg" version="1.1" width="512px" height="512px" style="shape-rendering:geometricPrecision; text-rendering:geometricPrecision; image-rendering:optimizeQuality; fill-rule:evenodd; clip-rule:evenodd" xmlns:xlink="http://www.w3.org/1999/xlink">
<g><path style="opacity:0.986" fill="#fefffe" d="M 321.5,79.5 C 357.198,75.3209 385.364,87.6542 406,116.5C 423.436,150.852 422.103,184.519 402,217.5C 378.305,252.092 346.471,262.925 306.5,250C 271.37,231.285 253.37,201.785 252.5,161.5C 254.905,116.624 277.905,89.2905 321.5,79.5 Z"/></g>
<g><path style="opacity:0.983" fill="#fefffe" d="M 133.5,111.5 C 159.641,108.156 181.808,115.823 200,134.5C 220.83,164.384 221.83,195.051 203,226.5C 183.299,256.067 156.466,265.567 122.5,255C 98.1209,242.449 83.2876,222.616 78,195.5C 72.594,160.148 85.4273,133.981 116.5,117C 122.232,114.992 127.898,113.158 133.5,111.5 Z"/></g>
<g><path style="opacity:0.986" fill="#fefffe" d="M 134.5,277.5 C 154.077,276.84 173.411,278.674 192.5,283C 201.232,285.355 209.565,288.688 217.5,293C 222.578,296.857 223.411,301.357 220,306.5C 188.808,328.531 168.808,358.197 160,395.5C 158.833,396.667 157.667,397.833 156.5,399C 115.5,399.667 74.5,399.667 33.5,399C 18.8747,392.587 13.0414,381.421 16,365.5C 25.6242,331.537 46.4575,307.037 78.5,292C 96.4762,284.007 115.143,279.174 134.5,277.5 Z"/></g>
<g><path style="opacity:0.992" fill="#fefffe" d="M 314.5,287.5 C 364.647,282.533 409.98,294.7 450.5,324C 475.417,344.432 490.417,370.598 495.5,402.5C 495.251,416.572 488.584,426.072 475.5,431C 382.167,431.667 288.833,431.667 195.5,431C 185.262,427.761 178.762,420.928 176,410.5C 174.455,399.343 176.122,388.677 181,378.5C 195.3,345.2 218.8,320.7 251.5,305C 271.704,295.869 292.704,290.035 314.5,287.5 Z"/></g>
</svg>
