<?xml version="1.0" encoding="UTF-8"?>
<!DOCTYPE svg PUBLIC "-//W3C//DTD SVG 1.1//EN" "http://www.w3.org/Graphics/SVG/1.1/DTD/svg11.dtd">
<svg xmlns="http://www.w3.org/2000/svg" version="1.1" width="800px" height="800px" style="shape-rendering:geometricPrecision; text-rendering:geometricPrecision; image-rendering:optimizeQuality; fill-rule:evenodd; clip-rule:evenodd" xmlns:xlink="http://www.w3.org/1999/xlink">
<g><path style="opacity:0.995" fill="#fefffe" d="M 374.5,75.5 C 406.833,73.3333 438.166,77.8333 468.5,89C 496.326,101.164 518.493,119.998 535,145.5C 538.865,154.068 543.365,162.235 548.5,170C 549.5,170.5 550.5,171 551.5,171.5C 558.313,169.289 565.313,168.122 572.5,168C 659.862,158.397 715.695,195.564 740,279.5C 742.013,294.252 742.846,309.086 742.5,324C 744.408,382.836 722.742,430.836 677.5,468C 645.93,489.646 610.93,499.646 572.5,498C 555.808,496.108 539.141,494.441 522.5,493C 499.392,514.059 473.725,531.393 445.5,545C 436.444,548.176 427.111,549.843 417.5,550C 370.317,557.794 328.651,546.46 292.5,516C 278.471,503.053 265.971,488.887 255,473.5C 253.786,471.951 252.286,470.785 250.5,470C 185.765,487.752 131.598,471.252 88,420.5C 53.7096,375.179 47.3763,326.179 69,273.5C 106.309,197.918 167.143,164.085 251.5,172C 254.338,155.806 260.838,141.306 271,128.5C 298.911,97.9614 333.411,80.2947 374.5,75.5 Z"/></g>
<g><path style="opacity:0.983" fill="#fefffe" d="M 220.5,516.5 C 251.23,515.115 275.064,527.115 292,552.5C 309.73,588.394 304.23,620.228 275.5,648C 245.673,669.245 215.34,669.911 184.5,650C 160.955,631.047 151.788,606.547 157,576.5C 164.865,542.334 186.031,522.334 220.5,516.5 Z"/></g>
<g><path style="opacity:0.964" fill="#fefffe" d="M 123.5,653.5 C 139.164,651.75 151.331,657.416 160,670.5C 168.278,688.132 165.445,703.632 151.5,717C 128.102,729.091 109.935,723.591 97,700.5C 91.9178,676.639 100.751,660.972 123.5,653.5 Z"/></g>
</svg>
